<svg width="33" height="30" viewBox="0 0 33 30" fill="none" xmlns="http://www.w3.org/2000/svg">
<path fill-rule="evenodd" clip-rule="evenodd" d="M11.8467 11.1033L10.7454 14.533H12.932L11.871 11.1033H11.8467Z" fill="#FAE100"/>
<path fill-rule="evenodd" clip-rule="evenodd" d="M28.5343 17.6215C28.3461 17.7659 28.1185 17.839 27.8547 17.839C27.6641 17.839 27.5095 17.8063 27.3885 17.7382C27.2676 17.6609 27.1441 17.5316 27.0215 17.3317L24.8685 13.8658L23.8429 14.9351L23.853 16.8697C23.8496 17.1611 23.7656 17.398 23.5968 17.5736C23.4263 17.7525 23.1978 17.839 22.9122 17.839C22.6753 17.839 22.4762 17.7735 22.3124 17.6483C22.1478 17.5165 22.0436 17.3401 21.9991 17.1191C21.984 17.0385 21.9798 16.957 21.9823 16.8697L21.9798 9.96234C21.9823 9.67338 22.0638 9.43734 22.2343 9.25842C22.4023 9.08202 22.6308 8.99298 22.9181 8.99298C23.1541 8.99298 23.3532 9.05682 23.5153 9.18702C23.6816 9.31806 23.7849 9.49446 23.8295 9.71538C23.8454 9.79686 23.853 9.88002 23.8479 9.96234L23.853 12.7923L26.7879 9.41802C26.9198 9.27438 27.0366 9.16938 27.1433 9.09714C27.2516 9.02742 27.3793 8.99298 27.5322 8.99298C27.7388 8.99298 27.9245 9.0501 28.0916 9.16686C28.2605 9.27774 28.3621 9.42894 28.4024 9.62298C28.4033 9.62886 28.4083 9.65658 28.4159 9.69438C28.4142 9.7221 28.4159 9.75234 28.4209 9.77334C28.4192 9.90774 28.3915 10.027 28.3344 10.1287C28.2773 10.2345 28.2033 10.337 28.1126 10.4411L26.1924 12.5369L28.4637 16.1338L28.5318 16.243C28.6863 16.4875 28.7762 16.6655 28.8006 16.7848C28.8031 16.7924 28.8065 16.8151 28.814 16.8436C28.8132 16.8764 28.8132 16.8932 28.814 16.9041C28.814 17.2376 28.7216 17.4761 28.5343 17.6215ZM21.5161 17.4736C21.333 17.6139 21.1011 17.6878 20.8206 17.6878H16.9238C16.634 17.6878 16.4005 17.6299 16.2207 17.5081C16.0393 17.393 15.9234 17.1998 15.8671 16.9318C15.8461 16.8193 15.8318 16.6916 15.8259 16.5505L15.8293 9.96234C15.8293 9.67338 15.915 9.43734 16.0847 9.25842C16.2518 9.08202 16.4811 8.99298 16.7701 8.99298C17.0053 8.99298 17.2061 9.05682 17.3682 9.18702C17.5286 9.31806 17.6353 9.49446 17.6807 9.71538C17.6966 9.79686 17.7025 9.88002 17.6966 9.96234L17.6949 16.0507H20.8164C21.0667 16.0507 21.2775 16.1044 21.4472 16.2161C21.6177 16.3295 21.7261 16.4875 21.7647 16.6916C21.7782 16.7445 21.7866 16.8083 21.7916 16.8697C21.7916 17.1284 21.7001 17.3317 21.5161 17.4736ZM15.2749 17.5921C15.1035 17.7609 14.8977 17.839 14.655 17.839C14.2232 17.839 13.9427 17.6609 13.8158 17.3065L13.3328 15.8835H10.3248L9.8401 17.3065C9.72334 17.6609 9.44362 17.839 9.00346 17.839C8.78506 17.839 8.59942 17.7853 8.45158 17.6693C8.30374 17.5568 8.20714 17.393 8.16514 17.1863C8.1517 17.1275 8.1475 17.0612 8.1475 16.9881C8.14414 16.8932 8.15842 16.7789 8.19874 16.6445C8.23318 16.511 8.27686 16.3749 8.32474 16.243L10.7406 9.58686C10.8162 9.3735 10.9304 9.22062 11.0808 9.1299C11.2295 9.03918 11.4201 8.99298 11.6528 8.99298H12.1014C12.3441 8.99298 12.5474 9.04338 12.7121 9.14082C12.8759 9.23742 13.0069 9.4281 13.0985 9.7053L15.3539 16.243C15.4269 16.4446 15.4765 16.6193 15.5059 16.7638C15.5244 16.8596 15.5353 16.9352 15.5395 16.9881C15.5353 17.2275 15.4479 17.4249 15.2749 17.5921ZM7.5595 16.8697C7.55782 17.1611 7.47298 17.398 7.3033 17.5736C7.13614 17.7525 6.9043 17.839 6.6187 17.839C6.3835 17.839 6.18442 17.7735 6.02146 17.6483C5.85598 17.5165 5.7535 17.3401 5.70646 17.1191C5.6905 17.0385 5.6863 16.957 5.6905 16.8697L5.69386 10.7855H3.92818C3.68542 10.7855 3.47542 10.7267 3.3007 10.6175C3.12514 10.51 3.01846 10.3496 2.97814 10.1446C2.96806 10.09 2.95798 10.027 2.95126 9.96234C2.95126 9.7053 3.04366 9.50286 3.22846 9.36258C3.41074 9.22062 3.64258 9.14502 3.92314 9.14502H9.32266C9.56626 9.14502 9.77542 9.20298 9.94846 9.31218C10.1249 9.42222 10.2332 9.57762 10.2761 9.78594C10.2836 9.84222 10.2903 9.90102 10.287 9.96234C10.287 10.2286 10.1963 10.426 10.0173 10.573C9.83842 10.7125 9.60826 10.7855 9.32686 10.7855H7.56118L7.5595 16.8697ZM16.2258 -6.10352e-05C7.26466 -6.10352e-05 0.000335693 5.7363 0.000335693 12.8158C0.000335693 17.3686 3.01006 21.3561 7.5301 23.6375L5.99962 29.3453C5.94166 29.5175 5.9887 29.7074 6.11554 29.8325C6.20374 29.9207 6.31966 29.9686 6.44734 29.9686C6.54478 29.9686 6.64138 29.9266 6.72874 29.8603L13.3043 25.42C14.2577 25.5569 15.2329 25.6334 16.2258 25.6334C25.1852 25.6334 32.4521 19.8962 32.4521 12.8158C32.4521 5.7363 25.1852 -6.10352e-05 16.2258 -6.10352e-05Z" fill="#FAE100"/>
</svg>
