<svg width="578" height="72" viewBox="0 0 578 72" fill="none" xmlns="http://www.w3.org/2000/svg">
<path d="M0 36C0 16.1178 16.1178 0 36 0H542C561.882 0 578 16.1178 578 36C578 55.8823 561.882 72 542 72H36C16.1178 72 0 55.8823 0 36Z" fill="white"/>
<circle cx="149" cy="36.5" r="14" fill="#0C82EE"/>
<path d="M154.214 40.7816L154.836 36.8301H150.945V34.267C150.945 33.1857 151.488 32.1311 153.23 32.1311H155V28.767C155 28.767 153.395 28.5 151.86 28.5C148.655 28.5 146.562 30.3929 146.562 33.8184V36.8301H143V40.7816H146.562V50.3345C147.277 50.444 148.008 50.5 148.753 50.5C149.499 50.5 150.23 50.444 150.945 50.3345V40.7816H154.214Z" fill="white"/>
<path d="M195.016 30.512C194.504 29.824 193.872 29.312 193.12 28.976C192.368 28.624 191.584 28.448 190.768 28.448C189.824 28.448 188.952 28.64 188.152 29.024C187.368 29.408 186.688 29.928 186.112 30.584C185.536 31.224 185.088 31.976 184.768 32.84C184.448 33.688 184.288 34.576 184.288 35.504C184.288 36.496 184.448 37.424 184.768 38.288C185.088 39.136 185.528 39.88 186.088 40.52C186.664 41.144 187.344 41.64 188.128 42.008C188.928 42.376 189.808 42.56 190.768 42.56C191.808 42.56 192.736 42.36 193.552 41.96C194.368 41.544 195.08 40.952 195.688 40.184L197.2 41.456C196.432 42.48 195.504 43.232 194.416 43.712C193.344 44.192 192.128 44.432 190.768 44.432C189.552 44.432 188.416 44.208 187.36 43.76C186.304 43.312 185.384 42.696 184.6 41.912C183.832 41.112 183.224 40.168 182.776 39.08C182.344 37.992 182.128 36.8 182.128 35.504C182.128 34.256 182.336 33.088 182.752 32C183.184 30.912 183.784 29.968 184.552 29.168C185.32 28.368 186.232 27.736 187.288 27.272C188.344 26.808 189.504 26.576 190.768 26.576C191.92 26.576 193.024 26.784 194.08 27.2C195.152 27.616 196.048 28.296 196.768 29.24L195.016 30.512ZM199.026 38.384C199.026 37.504 199.178 36.704 199.482 35.984C199.786 35.264 200.202 34.648 200.73 34.136C201.258 33.608 201.89 33.2 202.626 32.912C203.362 32.624 204.162 32.48 205.026 32.48C205.89 32.48 206.69 32.624 207.426 32.912C208.162 33.2 208.794 33.608 209.322 34.136C209.85 34.648 210.266 35.264 210.57 35.984C210.874 36.704 211.026 37.504 211.026 38.384C211.026 39.264 210.874 40.064 210.57 40.784C210.266 41.504 209.85 42.128 209.322 42.656C208.794 43.168 208.162 43.568 207.426 43.856C206.69 44.144 205.89 44.288 205.026 44.288C204.162 44.288 203.362 44.144 202.626 43.856C201.89 43.568 201.258 43.168 200.73 42.656C200.202 42.128 199.786 41.504 199.482 40.784C199.178 40.064 199.026 39.264 199.026 38.384ZM201.042 38.384C201.042 38.976 201.13 39.528 201.306 40.04C201.498 40.536 201.77 40.976 202.122 41.36C202.474 41.728 202.89 42.024 203.37 42.248C203.866 42.456 204.418 42.56 205.026 42.56C205.634 42.56 206.178 42.456 206.658 42.248C207.154 42.024 207.578 41.728 207.93 41.36C208.282 40.976 208.546 40.536 208.722 40.04C208.914 39.528 209.01 38.976 209.01 38.384C209.01 37.792 208.914 37.248 208.722 36.752C208.546 36.24 208.282 35.8 207.93 35.432C207.578 35.048 207.154 34.752 206.658 34.544C206.178 34.32 205.634 34.208 205.026 34.208C204.418 34.208 203.866 34.32 203.37 34.544C202.89 34.752 202.474 35.048 202.122 35.432C201.77 35.8 201.498 36.24 201.306 36.752C201.13 37.248 201.042 37.792 201.042 38.384ZM213.924 35.432C213.924 34.92 213.908 34.44 213.876 33.992C213.844 33.544 213.828 33.136 213.828 32.768H215.604C215.604 33.072 215.612 33.376 215.628 33.68C215.644 33.984 215.652 34.296 215.652 34.616H215.7C215.828 34.344 216.004 34.08 216.228 33.824C216.468 33.568 216.748 33.344 217.068 33.152C217.388 32.944 217.748 32.784 218.148 32.672C218.548 32.544 218.98 32.48 219.444 32.48C220.18 32.48 220.812 32.592 221.34 32.816C221.884 33.04 222.332 33.352 222.684 33.752C223.036 34.152 223.292 34.64 223.452 35.216C223.628 35.776 223.716 36.392 223.716 37.064V44H221.844V37.256C221.844 36.312 221.636 35.568 221.22 35.024C220.804 34.48 220.156 34.208 219.276 34.208C218.668 34.208 218.14 34.312 217.692 34.52C217.26 34.728 216.9 35.024 216.612 35.408C216.34 35.792 216.132 36.248 215.988 36.776C215.86 37.304 215.796 37.888 215.796 38.528V44H213.924V35.432ZM233.404 34.352H230.092V39.968C230.092 40.336 230.1 40.68 230.116 41C230.132 41.304 230.196 41.576 230.308 41.816C230.42 42.04 230.588 42.224 230.812 42.368C231.036 42.496 231.356 42.56 231.772 42.56C232.044 42.56 232.324 42.528 232.612 42.464C232.9 42.4 233.172 42.304 233.428 42.176L233.5 43.88C233.18 44.024 232.82 44.128 232.42 44.192C232.036 44.256 231.668 44.288 231.316 44.288C230.644 44.288 230.108 44.2 229.708 44.024C229.308 43.848 228.996 43.6 228.772 43.28C228.548 42.96 228.396 42.568 228.316 42.104C228.252 41.624 228.22 41.096 228.22 40.52V34.352H225.772V32.768H228.22V29.576H230.092V32.768H233.404V34.352ZM235.889 32.768H237.761V44H235.889V32.768ZM235.457 28.376C235.457 28.008 235.585 27.688 235.841 27.416C236.113 27.144 236.441 27.008 236.825 27.008C237.209 27.008 237.529 27.144 237.785 27.416C238.057 27.688 238.193 28.008 238.193 28.376C238.193 28.776 238.065 29.104 237.809 29.36C237.553 29.616 237.225 29.744 236.825 29.744C236.425 29.744 236.097 29.616 235.841 29.36C235.585 29.104 235.457 28.776 235.457 28.376ZM241.487 35.432C241.487 34.92 241.471 34.44 241.439 33.992C241.407 33.544 241.391 33.136 241.391 32.768H243.167C243.167 33.072 243.175 33.376 243.191 33.68C243.207 33.984 243.215 34.296 243.215 34.616H243.263C243.391 34.344 243.567 34.08 243.791 33.824C244.031 33.568 244.311 33.344 244.631 33.152C244.951 32.944 245.311 32.784 245.711 32.672C246.111 32.544 246.543 32.48 247.007 32.48C247.743 32.48 248.375 32.592 248.903 32.816C249.447 33.04 249.895 33.352 250.247 33.752C250.599 34.152 250.855 34.64 251.015 35.216C251.191 35.776 251.279 36.392 251.279 37.064V44H249.407V37.256C249.407 36.312 249.199 35.568 248.783 35.024C248.367 34.48 247.719 34.208 246.839 34.208C246.231 34.208 245.703 34.312 245.255 34.52C244.823 34.728 244.463 35.024 244.175 35.408C243.903 35.792 243.695 36.248 243.551 36.776C243.423 37.304 243.359 37.888 243.359 38.528V44H241.487V35.432ZM264.615 41.336C264.615 41.848 264.631 42.328 264.663 42.776C264.695 43.224 264.711 43.632 264.711 44H262.935C262.935 43.696 262.927 43.392 262.911 43.088C262.895 42.784 262.887 42.472 262.887 42.152H262.839C262.711 42.424 262.527 42.688 262.287 42.944C262.063 43.2 261.791 43.432 261.471 43.64C261.151 43.832 260.791 43.984 260.391 44.096C259.991 44.224 259.559 44.288 259.095 44.288C258.359 44.288 257.719 44.176 257.175 43.952C256.647 43.728 256.207 43.416 255.855 43.016C255.503 42.616 255.239 42.136 255.063 41.576C254.903 41 254.823 40.376 254.823 39.704V32.768H256.695V39.512C256.695 40.456 256.903 41.2 257.319 41.744C257.735 42.288 258.383 42.56 259.263 42.56C259.871 42.56 260.391 42.456 260.823 42.248C261.271 42.04 261.631 41.744 261.903 41.36C262.191 40.976 262.399 40.52 262.527 39.992C262.671 39.464 262.743 38.88 262.743 38.24V32.768H264.615V41.336ZM278.191 41.96C277.519 42.824 276.783 43.432 275.983 43.784C275.183 44.12 274.255 44.288 273.199 44.288C272.319 44.288 271.527 44.136 270.823 43.832C270.119 43.512 269.519 43.088 269.023 42.56C268.543 42.032 268.167 41.408 267.895 40.688C267.639 39.968 267.511 39.2 267.511 38.384C267.511 37.52 267.655 36.728 267.943 36.008C268.231 35.272 268.631 34.648 269.143 34.136C269.655 33.608 270.263 33.2 270.967 32.912C271.671 32.624 272.439 32.48 273.271 32.48C274.055 32.48 274.775 32.616 275.431 32.888C276.087 33.144 276.647 33.528 277.111 34.04C277.591 34.536 277.959 35.152 278.215 35.888C278.471 36.608 278.599 37.432 278.599 38.36V38.96H269.527C269.559 39.44 269.671 39.904 269.863 40.352C270.071 40.784 270.335 41.168 270.655 41.504C270.975 41.824 271.351 42.08 271.783 42.272C272.215 42.464 272.687 42.56 273.199 42.56C274.015 42.56 274.703 42.416 275.263 42.128C275.823 41.84 276.327 41.416 276.775 40.856L278.191 41.96ZM276.583 37.376C276.551 36.416 276.239 35.648 275.647 35.072C275.055 34.496 274.239 34.208 273.199 34.208C272.159 34.208 271.319 34.496 270.679 35.072C270.039 35.648 269.655 36.416 269.527 37.376H276.583ZM300.222 44H298.374L295.182 35.36H295.134L292.302 44H290.382L286.734 32.768H288.798L291.366 41.408H291.414L294.318 32.768H296.286L299.238 41.408H299.286L301.83 32.768H303.846L300.222 44ZM306.132 32.768H308.004V44H306.132V32.768ZM305.7 28.376C305.7 28.008 305.828 27.688 306.084 27.416C306.356 27.144 306.684 27.008 307.068 27.008C307.452 27.008 307.772 27.144 308.028 27.416C308.3 27.688 308.436 28.008 308.436 28.376C308.436 28.776 308.308 29.104 308.052 29.36C307.796 29.616 307.468 29.744 307.068 29.744C306.668 29.744 306.34 29.616 306.084 29.36C305.828 29.104 305.7 28.776 305.7 28.376ZM317.873 34.352H314.561V39.968C314.561 40.336 314.569 40.68 314.585 41C314.601 41.304 314.665 41.576 314.777 41.816C314.889 42.04 315.057 42.224 315.281 42.368C315.505 42.496 315.825 42.56 316.241 42.56C316.513 42.56 316.793 42.528 317.081 42.464C317.369 42.4 317.641 42.304 317.897 42.176L317.969 43.88C317.649 44.024 317.289 44.128 316.889 44.192C316.505 44.256 316.137 44.288 315.785 44.288C315.113 44.288 314.577 44.2 314.177 44.024C313.777 43.848 313.465 43.6 313.241 43.28C313.017 42.96 312.865 42.568 312.785 42.104C312.721 41.624 312.689 41.096 312.689 40.52V34.352H310.241V32.768H312.689V29.576H314.561V32.768H317.873V34.352ZM320.19 25.856H322.062V34.328H322.11C322.238 34.104 322.414 33.888 322.638 33.68C322.862 33.456 323.126 33.256 323.43 33.08C323.75 32.904 324.102 32.76 324.486 32.648C324.87 32.536 325.278 32.48 325.71 32.48C326.446 32.48 327.078 32.592 327.606 32.816C328.15 33.04 328.598 33.352 328.95 33.752C329.302 34.152 329.558 34.64 329.718 35.216C329.894 35.776 329.982 36.392 329.982 37.064V44H328.11V37.256C328.11 36.312 327.902 35.568 327.486 35.024C327.07 34.48 326.422 34.208 325.542 34.208C324.934 34.208 324.406 34.312 323.958 34.52C323.526 34.728 323.166 35.024 322.878 35.408C322.606 35.792 322.398 36.248 322.254 36.776C322.126 37.304 322.062 37.888 322.062 38.528V44H320.19V25.856ZM340.542 27.008H351.078V28.88H342.558V34.496H350.478V36.368H342.558V44H340.542V27.008ZM353.398 34.208C353.974 33.616 354.654 33.184 355.438 32.912C356.238 32.624 357.046 32.48 357.862 32.48C359.526 32.48 360.726 32.872 361.462 33.656C362.198 34.44 362.566 35.632 362.566 37.232V42.056C362.566 42.376 362.582 42.712 362.614 43.064C362.646 43.4 362.686 43.712 362.734 44H360.934C360.87 43.744 360.83 43.464 360.814 43.16C360.814 42.84 360.814 42.56 360.814 42.32H360.766C360.398 42.896 359.902 43.368 359.278 43.736C358.67 44.104 357.934 44.288 357.07 44.288C356.494 44.288 355.95 44.216 355.438 44.072C354.942 43.928 354.502 43.72 354.118 43.448C353.75 43.16 353.454 42.808 353.23 42.392C353.006 41.976 352.894 41.496 352.894 40.952C352.894 40.024 353.134 39.296 353.614 38.768C354.094 38.24 354.686 37.848 355.39 37.592C356.11 37.336 356.878 37.176 357.694 37.112C358.526 37.048 359.286 37.016 359.974 37.016H360.694V36.68C360.694 35.864 360.446 35.248 359.95 34.832C359.47 34.416 358.79 34.208 357.91 34.208C357.302 34.208 356.702 34.312 356.11 34.52C355.534 34.712 355.022 35.016 354.574 35.432L353.398 34.208ZM358.822 38.6C357.622 38.6 356.67 38.768 355.966 39.104C355.262 39.44 354.91 39.992 354.91 40.76C354.91 41.464 355.142 41.968 355.606 42.272C356.086 42.56 356.678 42.704 357.382 42.704C357.926 42.704 358.398 42.616 358.798 42.44C359.214 42.248 359.558 42 359.83 41.696C360.102 41.392 360.31 41.04 360.454 40.64C360.598 40.224 360.678 39.784 360.694 39.32V38.6H358.822ZM373.979 35.576C373.579 35.096 373.147 34.752 372.683 34.544C372.219 34.32 371.707 34.208 371.147 34.208C370.523 34.208 369.971 34.32 369.491 34.544C369.011 34.752 368.611 35.048 368.291 35.432C367.987 35.816 367.755 36.264 367.595 36.776C367.435 37.272 367.355 37.808 367.355 38.384C367.355 38.96 367.443 39.504 367.619 40.016C367.811 40.512 368.067 40.952 368.387 41.336C368.723 41.72 369.123 42.024 369.587 42.248C370.051 42.456 370.571 42.56 371.147 42.56C372.379 42.56 373.331 42.096 374.003 41.168L375.395 42.488C374.851 43.112 374.211 43.568 373.475 43.856C372.739 44.144 371.963 44.288 371.147 44.288C370.283 44.288 369.491 44.144 368.771 43.856C368.051 43.568 367.435 43.16 366.923 42.632C366.427 42.104 366.035 41.48 365.747 40.76C365.475 40.04 365.339 39.248 365.339 38.384C365.339 37.536 365.475 36.752 365.747 36.032C366.035 35.312 366.435 34.688 366.947 34.16C367.459 33.632 368.067 33.224 368.771 32.936C369.491 32.632 370.283 32.48 371.147 32.48C371.979 32.48 372.763 32.624 373.499 32.912C374.251 33.2 374.907 33.648 375.467 34.256L373.979 35.576ZM387.597 41.96C386.925 42.824 386.189 43.432 385.389 43.784C384.589 44.12 383.661 44.288 382.605 44.288C381.725 44.288 380.933 44.136 380.229 43.832C379.525 43.512 378.925 43.088 378.429 42.56C377.949 42.032 377.573 41.408 377.301 40.688C377.045 39.968 376.917 39.2 376.917 38.384C376.917 37.52 377.061 36.728 377.349 36.008C377.637 35.272 378.037 34.648 378.549 34.136C379.061 33.608 379.669 33.2 380.373 32.912C381.077 32.624 381.845 32.48 382.677 32.48C383.461 32.48 384.181 32.616 384.837 32.888C385.493 33.144 386.053 33.528 386.517 34.04C386.997 34.536 387.365 35.152 387.621 35.888C387.877 36.608 388.005 37.432 388.005 38.36V38.96H378.933C378.965 39.44 379.077 39.904 379.269 40.352C379.477 40.784 379.741 41.168 380.061 41.504C380.381 41.824 380.757 42.08 381.189 42.272C381.621 42.464 382.093 42.56 382.605 42.56C383.421 42.56 384.109 42.416 384.669 42.128C385.229 41.84 385.733 41.416 386.181 40.856L387.597 41.96ZM385.989 37.376C385.957 36.416 385.645 35.648 385.053 35.072C384.461 34.496 383.645 34.208 382.605 34.208C381.565 34.208 380.725 34.496 380.085 35.072C379.445 35.648 379.061 36.416 378.933 37.376H385.989ZM390.805 25.856H392.677V34.4H392.725C393.237 33.792 393.829 33.32 394.501 32.984C395.189 32.648 395.941 32.48 396.757 32.48C397.637 32.48 398.437 32.632 399.157 32.936C399.893 33.224 400.517 33.632 401.029 34.16C401.541 34.688 401.941 35.312 402.229 36.032C402.517 36.752 402.661 37.536 402.661 38.384C402.661 39.232 402.517 40.016 402.229 40.736C401.941 41.456 401.541 42.08 401.029 42.608C400.533 43.136 399.941 43.552 399.253 43.856C398.565 44.144 397.829 44.288 397.045 44.288C396.037 44.288 395.149 44.072 394.381 43.64C393.629 43.192 393.077 42.648 392.725 42.008H392.677V44H390.805V25.856ZM392.677 38.384C392.677 38.976 392.765 39.528 392.941 40.04C393.133 40.536 393.405 40.976 393.757 41.36C394.109 41.728 394.525 42.024 395.005 42.248C395.501 42.456 396.053 42.56 396.661 42.56C397.269 42.56 397.813 42.456 398.293 42.248C398.789 42.024 399.213 41.728 399.565 41.36C399.917 40.976 400.181 40.536 400.357 40.04C400.549 39.528 400.645 38.976 400.645 38.384C400.645 37.792 400.549 37.248 400.357 36.752C400.181 36.24 399.917 35.8 399.565 35.432C399.213 35.048 398.789 34.752 398.293 34.544C397.813 34.32 397.269 34.208 396.661 34.208C396.053 34.208 395.501 34.32 395.005 34.544C394.525 34.752 394.109 35.048 393.757 35.432C393.405 35.8 393.133 36.24 392.941 36.752C392.765 37.248 392.677 37.792 392.677 38.384ZM404.925 38.384C404.925 37.504 405.077 36.704 405.381 35.984C405.685 35.264 406.101 34.648 406.629 34.136C407.157 33.608 407.789 33.2 408.525 32.912C409.261 32.624 410.061 32.48 410.925 32.48C411.789 32.48 412.589 32.624 413.325 32.912C414.061 33.2 414.693 33.608 415.221 34.136C415.749 34.648 416.165 35.264 416.469 35.984C416.773 36.704 416.925 37.504 416.925 38.384C416.925 39.264 416.773 40.064 416.469 40.784C416.165 41.504 415.749 42.128 415.221 42.656C414.693 43.168 414.061 43.568 413.325 43.856C412.589 44.144 411.789 44.288 410.925 44.288C410.061 44.288 409.261 44.144 408.525 43.856C407.789 43.568 407.157 43.168 406.629 42.656C406.101 42.128 405.685 41.504 405.381 40.784C405.077 40.064 404.925 39.264 404.925 38.384ZM406.941 38.384C406.941 38.976 407.029 39.528 407.205 40.04C407.397 40.536 407.669 40.976 408.021 41.36C408.373 41.728 408.789 42.024 409.269 42.248C409.765 42.456 410.317 42.56 410.925 42.56C411.533 42.56 412.077 42.456 412.557 42.248C413.053 42.024 413.477 41.728 413.829 41.36C414.181 40.976 414.445 40.536 414.621 40.04C414.813 39.528 414.909 38.976 414.909 38.384C414.909 37.792 414.813 37.248 414.621 36.752C414.445 36.24 414.181 35.8 413.829 35.432C413.477 35.048 413.053 34.752 412.557 34.544C412.077 34.32 411.533 34.208 410.925 34.208C410.317 34.208 409.765 34.32 409.269 34.544C408.789 34.752 408.373 35.048 408.021 35.432C407.669 35.8 407.397 36.24 407.205 36.752C407.029 37.248 406.941 37.792 406.941 38.384ZM419.175 38.384C419.175 37.504 419.327 36.704 419.631 35.984C419.935 35.264 420.351 34.648 420.879 34.136C421.407 33.608 422.039 33.2 422.775 32.912C423.511 32.624 424.311 32.48 425.175 32.48C426.039 32.48 426.839 32.624 427.575 32.912C428.311 33.2 428.943 33.608 429.471 34.136C429.999 34.648 430.415 35.264 430.719 35.984C431.023 36.704 431.175 37.504 431.175 38.384C431.175 39.264 431.023 40.064 430.719 40.784C430.415 41.504 429.999 42.128 429.471 42.656C428.943 43.168 428.311 43.568 427.575 43.856C426.839 44.144 426.039 44.288 425.175 44.288C424.311 44.288 423.511 44.144 422.775 43.856C422.039 43.568 421.407 43.168 420.879 42.656C420.351 42.128 419.935 41.504 419.631 40.784C419.327 40.064 419.175 39.264 419.175 38.384ZM421.191 38.384C421.191 38.976 421.279 39.528 421.455 40.04C421.647 40.536 421.919 40.976 422.271 41.36C422.623 41.728 423.039 42.024 423.519 42.248C424.015 42.456 424.567 42.56 425.175 42.56C425.783 42.56 426.327 42.456 426.807 42.248C427.303 42.024 427.727 41.728 428.079 41.36C428.431 40.976 428.695 40.536 428.871 40.04C429.063 39.528 429.159 38.976 429.159 38.384C429.159 37.792 429.063 37.248 428.871 36.752C428.695 36.24 428.431 35.8 428.079 35.432C427.727 35.048 427.303 34.752 426.807 34.544C426.327 34.32 425.783 34.208 425.175 34.208C424.567 34.208 424.015 34.32 423.519 34.544C423.039 34.752 422.623 35.048 422.271 35.432C421.919 35.8 421.647 36.24 421.455 36.752C421.279 37.248 421.191 37.792 421.191 38.384ZM434.073 25.856H435.945V37.712L441.057 32.768H443.721L438.297 37.88L444.273 44H441.513L435.945 38.096V44H434.073V25.856Z" fill="#333333"/>
<path d="M36 1H542V-1H36V1ZM542 71H36V73H542V71ZM36 71C16.67 71 1 55.33 1 36H-1C-1 56.4345 15.5655 73 36 73V71ZM577 36C577 55.33 561.33 71 542 71V73C562.435 73 579 56.4345 579 36H577ZM542 1C561.33 1 577 16.67 577 36H579C579 15.5655 562.435 -1 542 -1V1ZM36 -1C15.5655 -1 -1 15.5655 -1 36H1C1 16.67 16.67 1 36 1V-1Z" fill="#333333"/>
</svg>
