<svg width="578" height="72" viewBox="0 0 578 72" fill="none" xmlns="http://www.w3.org/2000/svg">
<path d="M0 36C0 16.1178 16.1178 0 36 0H542C561.882 0 578 16.1178 578 36C578 55.8823 561.882 72 542 72H36C16.1178 72 0 55.8823 0 36Z" fill="white"/>
<path d="M172.501 35.7332C172.501 34.8699 172.43 34.2399 172.275 33.5865H162.215V37.4832H168.12C168.001 38.4515 167.358 39.9099 165.93 40.8898L165.91 41.0203L169.09 43.435L169.311 43.4565C171.334 41.6249 172.501 38.9298 172.501 35.7332Z" fill="#4285F4"/>
<path d="M162.214 46C165.107 46 167.535 45.0666 169.309 43.4567L165.928 40.8899C165.023 41.5083 163.809 41.9399 162.214 41.9399C159.381 41.9399 156.976 40.1083 156.119 37.5766L155.993 37.5871L152.686 40.0954L152.643 40.2132C154.404 43.6433 158.023 46 162.214 46Z" fill="#34A853"/>
<path d="M156.12 37.5767C155.894 36.9234 155.763 36.2233 155.763 35.5C155.763 34.7767 155.894 34.0767 156.109 33.4234L156.103 33.2842L152.754 30.7356L152.644 30.7867C151.918 32.21 151.501 33.8084 151.501 35.5C151.501 37.1917 151.918 38.79 152.644 40.2133L156.12 37.5767Z" fill="#FBBC05"/>
<path d="M162.214 29.06C164.226 29.06 165.583 29.9116 166.357 30.6233L169.381 27.73C167.524 26.0383 165.107 25 162.214 25C158.024 25 154.404 27.3566 152.643 30.7866L156.107 33.4233C156.976 30.8917 159.381 29.06 162.214 29.06Z" fill="#EB4335"/>
<path d="M204.016 29.512C203.504 28.824 202.872 28.312 202.12 27.976C201.368 27.624 200.584 27.448 199.768 27.448C198.824 27.448 197.952 27.64 197.152 28.024C196.368 28.408 195.688 28.928 195.112 29.584C194.536 30.224 194.088 30.976 193.768 31.84C193.448 32.688 193.288 33.576 193.288 34.504C193.288 35.496 193.448 36.424 193.768 37.288C194.088 38.136 194.528 38.88 195.088 39.52C195.664 40.144 196.344 40.64 197.128 41.008C197.928 41.376 198.808 41.56 199.768 41.56C200.808 41.56 201.736 41.36 202.552 40.96C203.368 40.544 204.08 39.952 204.688 39.184L206.2 40.456C205.432 41.48 204.504 42.232 203.416 42.712C202.344 43.192 201.128 43.432 199.768 43.432C198.552 43.432 197.416 43.208 196.36 42.76C195.304 42.312 194.384 41.696 193.6 40.912C192.832 40.112 192.224 39.168 191.776 38.08C191.344 36.992 191.128 35.8 191.128 34.504C191.128 33.256 191.336 32.088 191.752 31C192.184 29.912 192.784 28.968 193.552 28.168C194.32 27.368 195.232 26.736 196.288 26.272C197.344 25.808 198.504 25.576 199.768 25.576C200.92 25.576 202.024 25.784 203.08 26.2C204.152 26.616 205.048 27.296 205.768 28.24L204.016 29.512ZM208.026 37.384C208.026 36.504 208.178 35.704 208.482 34.984C208.786 34.264 209.202 33.648 209.73 33.136C210.258 32.608 210.89 32.2 211.626 31.912C212.362 31.624 213.162 31.48 214.026 31.48C214.89 31.48 215.69 31.624 216.426 31.912C217.162 32.2 217.794 32.608 218.322 33.136C218.85 33.648 219.266 34.264 219.57 34.984C219.874 35.704 220.026 36.504 220.026 37.384C220.026 38.264 219.874 39.064 219.57 39.784C219.266 40.504 218.85 41.128 218.322 41.656C217.794 42.168 217.162 42.568 216.426 42.856C215.69 43.144 214.89 43.288 214.026 43.288C213.162 43.288 212.362 43.144 211.626 42.856C210.89 42.568 210.258 42.168 209.73 41.656C209.202 41.128 208.786 40.504 208.482 39.784C208.178 39.064 208.026 38.264 208.026 37.384ZM210.042 37.384C210.042 37.976 210.13 38.528 210.306 39.04C210.498 39.536 210.77 39.976 211.122 40.36C211.474 40.728 211.89 41.024 212.37 41.248C212.866 41.456 213.418 41.56 214.026 41.56C214.634 41.56 215.178 41.456 215.658 41.248C216.154 41.024 216.578 40.728 216.93 40.36C217.282 39.976 217.546 39.536 217.722 39.04C217.914 38.528 218.01 37.976 218.01 37.384C218.01 36.792 217.914 36.248 217.722 35.752C217.546 35.24 217.282 34.8 216.93 34.432C216.578 34.048 216.154 33.752 215.658 33.544C215.178 33.32 214.634 33.208 214.026 33.208C213.418 33.208 212.866 33.32 212.37 33.544C211.89 33.752 211.474 34.048 211.122 34.432C210.77 34.8 210.498 35.24 210.306 35.752C210.13 36.248 210.042 36.792 210.042 37.384ZM222.924 34.432C222.924 33.92 222.908 33.44 222.876 32.992C222.844 32.544 222.828 32.136 222.828 31.768H224.604C224.604 32.072 224.612 32.376 224.628 32.68C224.644 32.984 224.652 33.296 224.652 33.616H224.7C224.828 33.344 225.004 33.08 225.228 32.824C225.468 32.568 225.748 32.344 226.068 32.152C226.388 31.944 226.748 31.784 227.148 31.672C227.548 31.544 227.98 31.48 228.444 31.48C229.18 31.48 229.812 31.592 230.34 31.816C230.884 32.04 231.332 32.352 231.684 32.752C232.036 33.152 232.292 33.64 232.452 34.216C232.628 34.776 232.716 35.392 232.716 36.064V43H230.844V36.256C230.844 35.312 230.636 34.568 230.22 34.024C229.804 33.48 229.156 33.208 228.276 33.208C227.668 33.208 227.14 33.312 226.692 33.52C226.26 33.728 225.9 34.024 225.612 34.408C225.34 34.792 225.132 35.248 224.988 35.776C224.86 36.304 224.796 36.888 224.796 37.528V43H222.924V34.432ZM242.404 33.352H239.092V38.968C239.092 39.336 239.1 39.68 239.116 40C239.132 40.304 239.196 40.576 239.308 40.816C239.42 41.04 239.588 41.224 239.812 41.368C240.036 41.496 240.356 41.56 240.772 41.56C241.044 41.56 241.324 41.528 241.612 41.464C241.9 41.4 242.172 41.304 242.428 41.176L242.5 42.88C242.18 43.024 241.82 43.128 241.42 43.192C241.036 43.256 240.668 43.288 240.316 43.288C239.644 43.288 239.108 43.2 238.708 43.024C238.308 42.848 237.996 42.6 237.772 42.28C237.548 41.96 237.396 41.568 237.316 41.104C237.252 40.624 237.22 40.096 237.22 39.52V33.352H234.772V31.768H237.22V28.576H239.092V31.768H242.404V33.352ZM244.889 31.768H246.761V43H244.889V31.768ZM244.457 27.376C244.457 27.008 244.585 26.688 244.841 26.416C245.113 26.144 245.441 26.008 245.825 26.008C246.209 26.008 246.529 26.144 246.785 26.416C247.057 26.688 247.193 27.008 247.193 27.376C247.193 27.776 247.065 28.104 246.809 28.36C246.553 28.616 246.225 28.744 245.825 28.744C245.425 28.744 245.097 28.616 244.841 28.36C244.585 28.104 244.457 27.776 244.457 27.376ZM250.487 34.432C250.487 33.92 250.471 33.44 250.439 32.992C250.407 32.544 250.391 32.136 250.391 31.768H252.167C252.167 32.072 252.175 32.376 252.191 32.68C252.207 32.984 252.215 33.296 252.215 33.616H252.263C252.391 33.344 252.567 33.08 252.791 32.824C253.031 32.568 253.311 32.344 253.631 32.152C253.951 31.944 254.311 31.784 254.711 31.672C255.111 31.544 255.543 31.48 256.007 31.48C256.743 31.48 257.375 31.592 257.903 31.816C258.447 32.04 258.895 32.352 259.247 32.752C259.599 33.152 259.855 33.64 260.015 34.216C260.191 34.776 260.279 35.392 260.279 36.064V43H258.407V36.256C258.407 35.312 258.199 34.568 257.783 34.024C257.367 33.48 256.719 33.208 255.839 33.208C255.231 33.208 254.703 33.312 254.255 33.52C253.823 33.728 253.463 34.024 253.175 34.408C252.903 34.792 252.695 35.248 252.551 35.776C252.423 36.304 252.359 36.888 252.359 37.528V43H250.487V34.432ZM273.615 40.336C273.615 40.848 273.631 41.328 273.663 41.776C273.695 42.224 273.711 42.632 273.711 43H271.935C271.935 42.696 271.927 42.392 271.911 42.088C271.895 41.784 271.887 41.472 271.887 41.152H271.839C271.711 41.424 271.527 41.688 271.287 41.944C271.063 42.2 270.791 42.432 270.471 42.64C270.151 42.832 269.791 42.984 269.391 43.096C268.991 43.224 268.559 43.288 268.095 43.288C267.359 43.288 266.719 43.176 266.175 42.952C265.647 42.728 265.207 42.416 264.855 42.016C264.503 41.616 264.239 41.136 264.063 40.576C263.903 40 263.823 39.376 263.823 38.704V31.768H265.695V38.512C265.695 39.456 265.903 40.2 266.319 40.744C266.735 41.288 267.383 41.56 268.263 41.56C268.871 41.56 269.391 41.456 269.823 41.248C270.271 41.04 270.631 40.744 270.903 40.36C271.191 39.976 271.399 39.52 271.527 38.992C271.671 38.464 271.743 37.88 271.743 37.24V31.768H273.615V40.336ZM287.191 40.96C286.519 41.824 285.783 42.432 284.983 42.784C284.183 43.12 283.255 43.288 282.199 43.288C281.319 43.288 280.527 43.136 279.823 42.832C279.119 42.512 278.519 42.088 278.023 41.56C277.543 41.032 277.167 40.408 276.895 39.688C276.639 38.968 276.511 38.2 276.511 37.384C276.511 36.52 276.655 35.728 276.943 35.008C277.231 34.272 277.631 33.648 278.143 33.136C278.655 32.608 279.263 32.2 279.967 31.912C280.671 31.624 281.439 31.48 282.271 31.48C283.055 31.48 283.775 31.616 284.431 31.888C285.087 32.144 285.647 32.528 286.111 33.04C286.591 33.536 286.959 34.152 287.215 34.888C287.471 35.608 287.599 36.432 287.599 37.36V37.96H278.527C278.559 38.44 278.671 38.904 278.863 39.352C279.071 39.784 279.335 40.168 279.655 40.504C279.975 40.824 280.351 41.08 280.783 41.272C281.215 41.464 281.687 41.56 282.199 41.56C283.015 41.56 283.703 41.416 284.263 41.128C284.823 40.84 285.327 40.416 285.775 39.856L287.191 40.96ZM285.583 36.376C285.551 35.416 285.239 34.648 284.647 34.072C284.055 33.496 283.239 33.208 282.199 33.208C281.159 33.208 280.319 33.496 279.679 34.072C279.039 34.648 278.655 35.416 278.527 36.376H285.583ZM309.222 43H307.374L304.182 34.36H304.134L301.302 43H299.382L295.734 31.768H297.798L300.366 40.408H300.414L303.318 31.768H305.286L308.238 40.408H308.286L310.83 31.768H312.846L309.222 43ZM315.132 31.768H317.004V43H315.132V31.768ZM314.7 27.376C314.7 27.008 314.828 26.688 315.084 26.416C315.356 26.144 315.684 26.008 316.068 26.008C316.452 26.008 316.772 26.144 317.028 26.416C317.3 26.688 317.436 27.008 317.436 27.376C317.436 27.776 317.308 28.104 317.052 28.36C316.796 28.616 316.468 28.744 316.068 28.744C315.668 28.744 315.34 28.616 315.084 28.36C314.828 28.104 314.7 27.776 314.7 27.376ZM326.873 33.352H323.561V38.968C323.561 39.336 323.569 39.68 323.585 40C323.601 40.304 323.665 40.576 323.777 40.816C323.889 41.04 324.057 41.224 324.281 41.368C324.505 41.496 324.825 41.56 325.241 41.56C325.513 41.56 325.793 41.528 326.081 41.464C326.369 41.4 326.641 41.304 326.897 41.176L326.969 42.88C326.649 43.024 326.289 43.128 325.889 43.192C325.505 43.256 325.137 43.288 324.785 43.288C324.113 43.288 323.577 43.2 323.177 43.024C322.777 42.848 322.465 42.6 322.241 42.28C322.017 41.96 321.865 41.568 321.785 41.104C321.721 40.624 321.689 40.096 321.689 39.52V33.352H319.241V31.768H321.689V28.576H323.561V31.768H326.873V33.352ZM329.19 24.856H331.062V33.328H331.11C331.238 33.104 331.414 32.888 331.638 32.68C331.862 32.456 332.126 32.256 332.43 32.08C332.75 31.904 333.102 31.76 333.486 31.648C333.87 31.536 334.278 31.48 334.71 31.48C335.446 31.48 336.078 31.592 336.606 31.816C337.15 32.04 337.598 32.352 337.95 32.752C338.302 33.152 338.558 33.64 338.718 34.216C338.894 34.776 338.982 35.392 338.982 36.064V43H337.11V36.256C337.11 35.312 336.902 34.568 336.486 34.024C336.07 33.48 335.422 33.208 334.542 33.208C333.934 33.208 333.406 33.312 332.958 33.52C332.526 33.728 332.166 34.024 331.878 34.408C331.606 34.792 331.398 35.248 331.254 35.776C331.126 36.304 331.062 36.888 331.062 37.528V43H329.19V24.856ZM363.99 41.848C363.014 42.392 361.982 42.792 360.894 43.048C359.822 43.304 358.734 43.432 357.63 43.432C356.302 43.432 355.086 43.216 353.982 42.784C352.878 42.352 351.918 41.744 351.102 40.96C350.302 40.176 349.678 39.24 349.23 38.152C348.782 37.048 348.558 35.832 348.558 34.504C348.558 33.16 348.79 31.944 349.254 30.856C349.734 29.752 350.39 28.816 351.222 28.048C352.054 27.264 353.022 26.656 354.126 26.224C355.23 25.792 356.422 25.576 357.702 25.576C358.822 25.576 359.894 25.744 360.918 26.08C361.958 26.416 362.886 26.992 363.702 27.808L362.19 29.392C361.614 28.768 360.91 28.288 360.078 27.952C359.262 27.616 358.422 27.448 357.558 27.448C356.582 27.448 355.678 27.624 354.846 27.976C354.014 28.328 353.286 28.816 352.662 29.44C352.054 30.064 351.574 30.808 351.222 31.672C350.886 32.536 350.718 33.48 350.718 34.504C350.718 35.512 350.886 36.448 351.222 37.312C351.574 38.176 352.054 38.928 352.662 39.568C353.286 40.192 354.03 40.68 354.894 41.032C355.758 41.384 356.71 41.56 357.75 41.56C358.438 41.56 359.158 41.48 359.91 41.32C360.662 41.144 361.35 40.896 361.974 40.576V35.368H358.062V33.496H363.99V41.848ZM367.237 37.384C367.237 36.504 367.389 35.704 367.693 34.984C367.997 34.264 368.413 33.648 368.941 33.136C369.469 32.608 370.101 32.2 370.837 31.912C371.573 31.624 372.373 31.48 373.237 31.48C374.101 31.48 374.901 31.624 375.637 31.912C376.373 32.2 377.005 32.608 377.533 33.136C378.061 33.648 378.477 34.264 378.781 34.984C379.085 35.704 379.237 36.504 379.237 37.384C379.237 38.264 379.085 39.064 378.781 39.784C378.477 40.504 378.061 41.128 377.533 41.656C377.005 42.168 376.373 42.568 375.637 42.856C374.901 43.144 374.101 43.288 373.237 43.288C372.373 43.288 371.573 43.144 370.837 42.856C370.101 42.568 369.469 42.168 368.941 41.656C368.413 41.128 367.997 40.504 367.693 39.784C367.389 39.064 367.237 38.264 367.237 37.384ZM369.253 37.384C369.253 37.976 369.341 38.528 369.517 39.04C369.709 39.536 369.981 39.976 370.333 40.36C370.685 40.728 371.101 41.024 371.581 41.248C372.077 41.456 372.629 41.56 373.237 41.56C373.845 41.56 374.389 41.456 374.869 41.248C375.365 41.024 375.789 40.728 376.141 40.36C376.493 39.976 376.757 39.536 376.933 39.04C377.125 38.528 377.221 37.976 377.221 37.384C377.221 36.792 377.125 36.248 376.933 35.752C376.757 35.24 376.493 34.8 376.141 34.432C375.789 34.048 375.365 33.752 374.869 33.544C374.389 33.32 373.845 33.208 373.237 33.208C372.629 33.208 372.077 33.32 371.581 33.544C371.101 33.752 370.685 34.048 370.333 34.432C369.981 34.8 369.709 35.24 369.517 35.752C369.341 36.248 369.253 36.792 369.253 37.384ZM381.487 37.384C381.487 36.504 381.639 35.704 381.943 34.984C382.247 34.264 382.663 33.648 383.191 33.136C383.719 32.608 384.351 32.2 385.087 31.912C385.823 31.624 386.623 31.48 387.487 31.48C388.351 31.48 389.151 31.624 389.887 31.912C390.623 32.2 391.255 32.608 391.783 33.136C392.311 33.648 392.727 34.264 393.031 34.984C393.335 35.704 393.487 36.504 393.487 37.384C393.487 38.264 393.335 39.064 393.031 39.784C392.727 40.504 392.311 41.128 391.783 41.656C391.255 42.168 390.623 42.568 389.887 42.856C389.151 43.144 388.351 43.288 387.487 43.288C386.623 43.288 385.823 43.144 385.087 42.856C384.351 42.568 383.719 42.168 383.191 41.656C382.663 41.128 382.247 40.504 381.943 39.784C381.639 39.064 381.487 38.264 381.487 37.384ZM383.503 37.384C383.503 37.976 383.591 38.528 383.767 39.04C383.959 39.536 384.231 39.976 384.583 40.36C384.935 40.728 385.351 41.024 385.831 41.248C386.327 41.456 386.879 41.56 387.487 41.56C388.095 41.56 388.639 41.456 389.119 41.248C389.615 41.024 390.039 40.728 390.391 40.36C390.743 39.976 391.007 39.536 391.183 39.04C391.375 38.528 391.471 37.976 391.471 37.384C391.471 36.792 391.375 36.248 391.183 35.752C391.007 35.24 390.743 34.8 390.391 34.432C390.039 34.048 389.615 33.752 389.119 33.544C388.639 33.32 388.095 33.208 387.487 33.208C386.879 33.208 386.327 33.32 385.831 33.544C385.351 33.752 384.935 34.048 384.583 34.432C384.231 34.8 383.959 35.24 383.767 35.752C383.591 36.248 383.503 36.792 383.503 37.384ZM407.593 42.496C407.593 44.544 407.065 46.096 406.009 47.152C404.969 48.224 403.457 48.76 401.473 48.76C400.369 48.76 399.369 48.6 398.473 48.28C397.593 47.96 396.753 47.408 395.953 46.624L397.297 45.088C397.889 45.728 398.513 46.208 399.169 46.528C399.841 46.864 400.609 47.032 401.473 47.032C402.305 47.032 402.993 46.904 403.537 46.648C404.097 46.408 404.537 46.072 404.857 45.64C405.177 45.224 405.401 44.744 405.529 44.2C405.657 43.656 405.721 43.088 405.721 42.496V41.056H405.673C405.225 41.776 404.641 42.304 403.921 42.64C403.201 42.976 402.465 43.144 401.713 43.144C400.833 43.144 400.025 43 399.289 42.712C398.553 42.424 397.921 42.024 397.393 41.512C396.865 41 396.457 40.392 396.169 39.688C395.881 38.984 395.737 38.216 395.737 37.384C395.737 36.472 395.881 35.648 396.169 34.912C396.457 34.176 396.857 33.56 397.369 33.064C397.897 32.552 398.529 32.16 399.265 31.888C400.001 31.616 400.817 31.48 401.713 31.48C402.097 31.48 402.481 31.528 402.865 31.624C403.249 31.704 403.617 31.84 403.969 32.032C404.337 32.208 404.665 32.44 404.953 32.728C405.241 33 405.481 33.32 405.673 33.688H405.721V31.768H407.593V42.496ZM397.753 37.384C397.753 37.96 397.857 38.496 398.065 38.992C398.273 39.472 398.553 39.896 398.905 40.264C399.273 40.616 399.697 40.896 400.177 41.104C400.657 41.312 401.169 41.416 401.713 41.416C402.353 41.416 402.921 41.304 403.417 41.08C403.913 40.856 404.329 40.56 404.665 40.192C405.017 39.808 405.281 39.376 405.457 38.896C405.633 38.4 405.721 37.88 405.721 37.336C405.721 36.728 405.625 36.176 405.433 35.68C405.241 35.168 404.969 34.728 404.617 34.36C404.265 33.992 403.841 33.712 403.345 33.52C402.849 33.312 402.305 33.208 401.713 33.208C401.121 33.208 400.577 33.32 400.081 33.544C399.601 33.752 399.185 34.048 398.833 34.432C398.497 34.8 398.233 35.24 398.041 35.752C397.849 36.248 397.753 36.792 397.753 37.384ZM411.225 24.856H413.097V43H411.225V24.856ZM426.855 40.96C426.183 41.824 425.447 42.432 424.647 42.784C423.847 43.12 422.919 43.288 421.863 43.288C420.983 43.288 420.191 43.136 419.487 42.832C418.783 42.512 418.183 42.088 417.687 41.56C417.207 41.032 416.831 40.408 416.559 39.688C416.303 38.968 416.175 38.2 416.175 37.384C416.175 36.52 416.319 35.728 416.607 35.008C416.895 34.272 417.295 33.648 417.807 33.136C418.319 32.608 418.927 32.2 419.631 31.912C420.335 31.624 421.103 31.48 421.935 31.48C422.719 31.48 423.439 31.616 424.095 31.888C424.751 32.144 425.311 32.528 425.775 33.04C426.255 33.536 426.623 34.152 426.879 34.888C427.135 35.608 427.263 36.432 427.263 37.36V37.96H418.191C418.223 38.44 418.335 38.904 418.527 39.352C418.735 39.784 418.999 40.168 419.319 40.504C419.639 40.824 420.015 41.08 420.447 41.272C420.879 41.464 421.351 41.56 421.863 41.56C422.679 41.56 423.367 41.416 423.927 41.128C424.487 40.84 424.991 40.416 425.439 39.856L426.855 40.96ZM425.247 36.376C425.215 35.416 424.903 34.648 424.311 34.072C423.719 33.496 422.903 33.208 421.863 33.208C420.823 33.208 419.983 33.496 419.343 34.072C418.703 34.648 418.319 35.416 418.191 36.376H425.247Z" fill="#333333"/>
<path d="M36 1H542V-1H36V1ZM542 71H36V73H542V71ZM36 71C16.67 71 1 55.33 1 36H-1C-1 56.4345 15.5655 73 36 73V71ZM577 36C577 55.33 561.33 71 542 71V73C562.435 73 579 56.4345 579 36H577ZM542 1C561.33 1 577 16.67 577 36H579C579 15.5655 562.435 -1 542 -1V1ZM36 -1C15.5655 -1 -1 15.5655 -1 36H1C1 16.67 16.67 1 36 1V-1Z" fill="#333333"/>
</svg>
