<svg width="578" height="72" viewBox="0 0 578 72" fill="none" xmlns="http://www.w3.org/2000/svg">
<path d="M0 36C0 16.1178 16.1178 0 36 0H542C561.882 0 578 16.1178 578 36C578 55.8823 561.882 72 542 72H36C16.1178 72 0 55.8823 0 36Z" fill="white"/>
<path d="M161.789 47.5C158.554 47.5 155.538 46.5591 153 44.9356C155.155 45.0751 158.958 44.7411 161.324 42.4848C157.765 42.3215 156.16 39.5923 155.951 38.426C156.253 38.5426 157.695 38.6826 158.509 38.356C154.416 37.3296 153.788 33.7373 153.927 32.641C154.695 33.1775 155.997 33.3641 156.509 33.3174C152.695 30.5882 154.067 26.4828 154.742 25.5963C157.479 29.3887 161.581 31.5186 166.656 31.637C166.561 31.2174 166.51 30.7804 166.51 30.3316C166.51 27.1109 169.113 24.5 172.325 24.5C174.003 24.5 175.514 25.2128 176.576 26.3528C177.697 26.0901 179.384 25.4751 180.209 24.9432C179.793 26.4361 178.499 27.6815 177.716 28.1431C177.722 28.1588 177.71 28.1273 177.716 28.1431C178.404 28.039 180.265 27.6814 181 27.1826C180.636 28.0213 179.264 29.4157 178.138 30.1964C178.347 39.4381 171.276 47.5 161.789 47.5Z" fill="#47ACDF"/>
<path d="M212.016 29.512C211.504 28.824 210.872 28.312 210.12 27.976C209.368 27.624 208.584 27.448 207.768 27.448C206.824 27.448 205.952 27.64 205.152 28.024C204.368 28.408 203.688 28.928 203.112 29.584C202.536 30.224 202.088 30.976 201.768 31.84C201.448 32.688 201.288 33.576 201.288 34.504C201.288 35.496 201.448 36.424 201.768 37.288C202.088 38.136 202.528 38.88 203.088 39.52C203.664 40.144 204.344 40.64 205.128 41.008C205.928 41.376 206.808 41.56 207.768 41.56C208.808 41.56 209.736 41.36 210.552 40.96C211.368 40.544 212.08 39.952 212.688 39.184L214.2 40.456C213.432 41.48 212.504 42.232 211.416 42.712C210.344 43.192 209.128 43.432 207.768 43.432C206.552 43.432 205.416 43.208 204.36 42.76C203.304 42.312 202.384 41.696 201.6 40.912C200.832 40.112 200.224 39.168 199.776 38.08C199.344 36.992 199.128 35.8 199.128 34.504C199.128 33.256 199.336 32.088 199.752 31C200.184 29.912 200.784 28.968 201.552 28.168C202.32 27.368 203.232 26.736 204.288 26.272C205.344 25.808 206.504 25.576 207.768 25.576C208.92 25.576 210.024 25.784 211.08 26.2C212.152 26.616 213.048 27.296 213.768 28.24L212.016 29.512ZM216.026 37.384C216.026 36.504 216.178 35.704 216.482 34.984C216.786 34.264 217.202 33.648 217.73 33.136C218.258 32.608 218.89 32.2 219.626 31.912C220.362 31.624 221.162 31.48 222.026 31.48C222.89 31.48 223.69 31.624 224.426 31.912C225.162 32.2 225.794 32.608 226.322 33.136C226.85 33.648 227.266 34.264 227.57 34.984C227.874 35.704 228.026 36.504 228.026 37.384C228.026 38.264 227.874 39.064 227.57 39.784C227.266 40.504 226.85 41.128 226.322 41.656C225.794 42.168 225.162 42.568 224.426 42.856C223.69 43.144 222.89 43.288 222.026 43.288C221.162 43.288 220.362 43.144 219.626 42.856C218.89 42.568 218.258 42.168 217.73 41.656C217.202 41.128 216.786 40.504 216.482 39.784C216.178 39.064 216.026 38.264 216.026 37.384ZM218.042 37.384C218.042 37.976 218.13 38.528 218.306 39.04C218.498 39.536 218.77 39.976 219.122 40.36C219.474 40.728 219.89 41.024 220.37 41.248C220.866 41.456 221.418 41.56 222.026 41.56C222.634 41.56 223.178 41.456 223.658 41.248C224.154 41.024 224.578 40.728 224.93 40.36C225.282 39.976 225.546 39.536 225.722 39.04C225.914 38.528 226.01 37.976 226.01 37.384C226.01 36.792 225.914 36.248 225.722 35.752C225.546 35.24 225.282 34.8 224.93 34.432C224.578 34.048 224.154 33.752 223.658 33.544C223.178 33.32 222.634 33.208 222.026 33.208C221.418 33.208 220.866 33.32 220.37 33.544C219.89 33.752 219.474 34.048 219.122 34.432C218.77 34.8 218.498 35.24 218.306 35.752C218.13 36.248 218.042 36.792 218.042 37.384ZM230.924 34.432C230.924 33.92 230.908 33.44 230.876 32.992C230.844 32.544 230.828 32.136 230.828 31.768H232.604C232.604 32.072 232.612 32.376 232.628 32.68C232.644 32.984 232.652 33.296 232.652 33.616H232.7C232.828 33.344 233.004 33.08 233.228 32.824C233.468 32.568 233.748 32.344 234.068 32.152C234.388 31.944 234.748 31.784 235.148 31.672C235.548 31.544 235.98 31.48 236.444 31.48C237.18 31.48 237.812 31.592 238.34 31.816C238.884 32.04 239.332 32.352 239.684 32.752C240.036 33.152 240.292 33.64 240.452 34.216C240.628 34.776 240.716 35.392 240.716 36.064V43H238.844V36.256C238.844 35.312 238.636 34.568 238.22 34.024C237.804 33.48 237.156 33.208 236.276 33.208C235.668 33.208 235.14 33.312 234.692 33.52C234.26 33.728 233.9 34.024 233.612 34.408C233.34 34.792 233.132 35.248 232.988 35.776C232.86 36.304 232.796 36.888 232.796 37.528V43H230.924V34.432ZM250.404 33.352H247.092V38.968C247.092 39.336 247.1 39.68 247.116 40C247.132 40.304 247.196 40.576 247.308 40.816C247.42 41.04 247.588 41.224 247.812 41.368C248.036 41.496 248.356 41.56 248.772 41.56C249.044 41.56 249.324 41.528 249.612 41.464C249.9 41.4 250.172 41.304 250.428 41.176L250.5 42.88C250.18 43.024 249.82 43.128 249.42 43.192C249.036 43.256 248.668 43.288 248.316 43.288C247.644 43.288 247.108 43.2 246.708 43.024C246.308 42.848 245.996 42.6 245.772 42.28C245.548 41.96 245.396 41.568 245.316 41.104C245.252 40.624 245.22 40.096 245.22 39.52V33.352H242.772V31.768H245.22V28.576H247.092V31.768H250.404V33.352ZM252.889 31.768H254.761V43H252.889V31.768ZM252.457 27.376C252.457 27.008 252.585 26.688 252.841 26.416C253.113 26.144 253.441 26.008 253.825 26.008C254.209 26.008 254.529 26.144 254.785 26.416C255.057 26.688 255.193 27.008 255.193 27.376C255.193 27.776 255.065 28.104 254.809 28.36C254.553 28.616 254.225 28.744 253.825 28.744C253.425 28.744 253.097 28.616 252.841 28.36C252.585 28.104 252.457 27.776 252.457 27.376ZM258.487 34.432C258.487 33.92 258.471 33.44 258.439 32.992C258.407 32.544 258.391 32.136 258.391 31.768H260.167C260.167 32.072 260.175 32.376 260.191 32.68C260.207 32.984 260.215 33.296 260.215 33.616H260.263C260.391 33.344 260.567 33.08 260.791 32.824C261.031 32.568 261.311 32.344 261.631 32.152C261.951 31.944 262.311 31.784 262.711 31.672C263.111 31.544 263.543 31.48 264.007 31.48C264.743 31.48 265.375 31.592 265.903 31.816C266.447 32.04 266.895 32.352 267.247 32.752C267.599 33.152 267.855 33.64 268.015 34.216C268.191 34.776 268.279 35.392 268.279 36.064V43H266.407V36.256C266.407 35.312 266.199 34.568 265.783 34.024C265.367 33.48 264.719 33.208 263.839 33.208C263.231 33.208 262.703 33.312 262.255 33.52C261.823 33.728 261.463 34.024 261.175 34.408C260.903 34.792 260.695 35.248 260.551 35.776C260.423 36.304 260.359 36.888 260.359 37.528V43H258.487V34.432ZM281.615 40.336C281.615 40.848 281.631 41.328 281.663 41.776C281.695 42.224 281.711 42.632 281.711 43H279.935C279.935 42.696 279.927 42.392 279.911 42.088C279.895 41.784 279.887 41.472 279.887 41.152H279.839C279.711 41.424 279.527 41.688 279.287 41.944C279.063 42.2 278.791 42.432 278.471 42.64C278.151 42.832 277.791 42.984 277.391 43.096C276.991 43.224 276.559 43.288 276.095 43.288C275.359 43.288 274.719 43.176 274.175 42.952C273.647 42.728 273.207 42.416 272.855 42.016C272.503 41.616 272.239 41.136 272.063 40.576C271.903 40 271.823 39.376 271.823 38.704V31.768H273.695V38.512C273.695 39.456 273.903 40.2 274.319 40.744C274.735 41.288 275.383 41.56 276.263 41.56C276.871 41.56 277.391 41.456 277.823 41.248C278.271 41.04 278.631 40.744 278.903 40.36C279.191 39.976 279.399 39.52 279.527 38.992C279.671 38.464 279.743 37.88 279.743 37.24V31.768H281.615V40.336ZM295.191 40.96C294.519 41.824 293.783 42.432 292.983 42.784C292.183 43.12 291.255 43.288 290.199 43.288C289.319 43.288 288.527 43.136 287.823 42.832C287.119 42.512 286.519 42.088 286.023 41.56C285.543 41.032 285.167 40.408 284.895 39.688C284.639 38.968 284.511 38.2 284.511 37.384C284.511 36.52 284.655 35.728 284.943 35.008C285.231 34.272 285.631 33.648 286.143 33.136C286.655 32.608 287.263 32.2 287.967 31.912C288.671 31.624 289.439 31.48 290.271 31.48C291.055 31.48 291.775 31.616 292.431 31.888C293.087 32.144 293.647 32.528 294.111 33.04C294.591 33.536 294.959 34.152 295.215 34.888C295.471 35.608 295.599 36.432 295.599 37.36V37.96H286.527C286.559 38.44 286.671 38.904 286.863 39.352C287.071 39.784 287.335 40.168 287.655 40.504C287.975 40.824 288.351 41.08 288.783 41.272C289.215 41.464 289.687 41.56 290.199 41.56C291.015 41.56 291.703 41.416 292.263 41.128C292.823 40.84 293.327 40.416 293.775 39.856L295.191 40.96ZM293.583 36.376C293.551 35.416 293.239 34.648 292.647 34.072C292.055 33.496 291.239 33.208 290.199 33.208C289.159 33.208 288.319 33.496 287.679 34.072C287.039 34.648 286.655 35.416 286.527 36.376H293.583ZM317.222 43H315.374L312.182 34.36H312.134L309.302 43H307.382L303.734 31.768H305.798L308.366 40.408H308.414L311.318 31.768H313.286L316.238 40.408H316.286L318.83 31.768H320.846L317.222 43ZM323.132 31.768H325.004V43H323.132V31.768ZM322.7 27.376C322.7 27.008 322.828 26.688 323.084 26.416C323.356 26.144 323.684 26.008 324.068 26.008C324.452 26.008 324.772 26.144 325.028 26.416C325.3 26.688 325.436 27.008 325.436 27.376C325.436 27.776 325.308 28.104 325.052 28.36C324.796 28.616 324.468 28.744 324.068 28.744C323.668 28.744 323.34 28.616 323.084 28.36C322.828 28.104 322.7 27.776 322.7 27.376ZM334.873 33.352H331.561V38.968C331.561 39.336 331.569 39.68 331.585 40C331.601 40.304 331.665 40.576 331.777 40.816C331.889 41.04 332.057 41.224 332.281 41.368C332.505 41.496 332.825 41.56 333.241 41.56C333.513 41.56 333.793 41.528 334.081 41.464C334.369 41.4 334.641 41.304 334.897 41.176L334.969 42.88C334.649 43.024 334.289 43.128 333.889 43.192C333.505 43.256 333.137 43.288 332.785 43.288C332.113 43.288 331.577 43.2 331.177 43.024C330.777 42.848 330.465 42.6 330.241 42.28C330.017 41.96 329.865 41.568 329.785 41.104C329.721 40.624 329.689 40.096 329.689 39.52V33.352H327.241V31.768H329.689V28.576H331.561V31.768H334.873V33.352ZM337.19 24.856H339.062V33.328H339.11C339.238 33.104 339.414 32.888 339.638 32.68C339.862 32.456 340.126 32.256 340.43 32.08C340.75 31.904 341.102 31.76 341.486 31.648C341.87 31.536 342.278 31.48 342.71 31.48C343.446 31.48 344.078 31.592 344.606 31.816C345.15 32.04 345.598 32.352 345.95 32.752C346.302 33.152 346.558 33.64 346.718 34.216C346.894 34.776 346.982 35.392 346.982 36.064V43H345.11V36.256C345.11 35.312 344.902 34.568 344.486 34.024C344.07 33.48 343.422 33.208 342.542 33.208C341.934 33.208 341.406 33.312 340.958 33.52C340.526 33.728 340.166 34.024 339.878 34.408C339.606 34.792 339.398 35.248 339.254 35.776C339.126 36.304 339.062 36.888 339.062 37.528V43H337.19V24.856ZM368.942 27.88H363.326V43H361.31V27.88H355.694V26.008H368.942V27.88ZM380.363 43H378.515L375.323 34.36H375.275L372.443 43H370.523L366.875 31.768H368.939L371.507 40.408H371.555L374.459 31.768H376.427L379.379 40.408H379.427L381.971 31.768H383.987L380.363 43ZM386.272 31.768H388.144V43H386.272V31.768ZM385.84 27.376C385.84 27.008 385.968 26.688 386.224 26.416C386.496 26.144 386.824 26.008 387.208 26.008C387.592 26.008 387.912 26.144 388.168 26.416C388.44 26.688 388.576 27.008 388.576 27.376C388.576 27.776 388.448 28.104 388.192 28.36C387.936 28.616 387.608 28.744 387.208 28.744C386.808 28.744 386.48 28.616 386.224 28.36C385.968 28.104 385.84 27.776 385.84 27.376ZM398.014 33.352H394.702V38.968C394.702 39.336 394.71 39.68 394.726 40C394.742 40.304 394.806 40.576 394.918 40.816C395.03 41.04 395.198 41.224 395.422 41.368C395.646 41.496 395.966 41.56 396.382 41.56C396.654 41.56 396.934 41.528 397.222 41.464C397.51 41.4 397.782 41.304 398.038 41.176L398.11 42.88C397.79 43.024 397.43 43.128 397.03 43.192C396.646 43.256 396.278 43.288 395.926 43.288C395.254 43.288 394.718 43.2 394.318 43.024C393.918 42.848 393.606 42.6 393.382 42.28C393.158 41.96 393.006 41.568 392.926 41.104C392.862 40.624 392.83 40.096 392.83 39.52V33.352H390.382V31.768H392.83V28.576H394.702V31.768H398.014V33.352ZM406.475 33.352H403.163V38.968C403.163 39.336 403.171 39.68 403.187 40C403.203 40.304 403.267 40.576 403.379 40.816C403.491 41.04 403.659 41.224 403.883 41.368C404.107 41.496 404.427 41.56 404.843 41.56C405.115 41.56 405.395 41.528 405.683 41.464C405.971 41.4 406.243 41.304 406.499 41.176L406.571 42.88C406.251 43.024 405.891 43.128 405.491 43.192C405.107 43.256 404.739 43.288 404.387 43.288C403.715 43.288 403.179 43.2 402.779 43.024C402.379 42.848 402.067 42.6 401.843 42.28C401.619 41.96 401.467 41.568 401.387 41.104C401.323 40.624 401.291 40.096 401.291 39.52V33.352H398.843V31.768H401.291V28.576H403.163V31.768H406.475V33.352ZM418.8 40.96C418.128 41.824 417.392 42.432 416.592 42.784C415.792 43.12 414.864 43.288 413.808 43.288C412.928 43.288 412.136 43.136 411.432 42.832C410.728 42.512 410.128 42.088 409.632 41.56C409.152 41.032 408.776 40.408 408.504 39.688C408.248 38.968 408.12 38.2 408.12 37.384C408.12 36.52 408.264 35.728 408.552 35.008C408.84 34.272 409.24 33.648 409.752 33.136C410.264 32.608 410.872 32.2 411.576 31.912C412.28 31.624 413.048 31.48 413.88 31.48C414.664 31.48 415.384 31.616 416.04 31.888C416.696 32.144 417.256 32.528 417.72 33.04C418.2 33.536 418.568 34.152 418.824 34.888C419.08 35.608 419.208 36.432 419.208 37.36V37.96H410.136C410.168 38.44 410.28 38.904 410.472 39.352C410.68 39.784 410.944 40.168 411.264 40.504C411.584 40.824 411.96 41.08 412.392 41.272C412.824 41.464 413.296 41.56 413.808 41.56C414.624 41.56 415.312 41.416 415.872 41.128C416.432 40.84 416.936 40.416 417.384 39.856L418.8 40.96ZM417.192 36.376C417.16 35.416 416.848 34.648 416.256 34.072C415.664 33.496 414.848 33.208 413.808 33.208C412.768 33.208 411.928 33.496 411.288 34.072C410.648 34.648 410.264 35.416 410.136 36.376H417.192ZM422.104 34.432C422.104 33.92 422.088 33.44 422.056 32.992C422.024 32.544 422.008 32.136 422.008 31.768H423.784C423.784 32.072 423.792 32.376 423.808 32.68C423.824 32.984 423.832 33.296 423.832 33.616H423.88C424.008 33.344 424.184 33.08 424.408 32.824C424.648 32.568 424.928 32.344 425.248 32.152C425.568 31.944 425.928 31.784 426.328 31.672C426.728 31.544 427.16 31.48 427.624 31.48C427.752 31.48 427.88 31.488 428.008 31.504C428.136 31.52 428.264 31.552 428.392 31.6L428.272 33.496C427.952 33.4 427.616 33.352 427.264 33.352C426.112 33.352 425.272 33.728 424.744 34.48C424.232 35.216 423.976 36.232 423.976 37.528V43H422.104V34.432Z" fill="#333333"/>
<path d="M36 1H542V-1H36V1ZM542 71H36V73H542V71ZM36 71C16.67 71 1 55.33 1 36H-1C-1 56.4345 15.5655 73 36 73V71ZM577 36C577 55.33 561.33 71 542 71V73C562.435 73 579 56.4345 579 36H577ZM542 1C561.33 1 577 16.67 577 36H579C579 15.5655 562.435 -1 542 -1V1ZM36 -1C15.5655 -1 -1 15.5655 -1 36H1C1 16.67 16.67 1 36 1V-1Z" fill="#333333"/>
</svg>
