<svg width="36" height="31" viewBox="0 0 36 31" fill="none" xmlns="http://www.w3.org/2000/svg">
<path d="M31.5325 4.38136L30.4906 5.46045L30.4911 5.46094L31.5325 4.38136ZM25.5774 2V3.5V2ZM19.6223 4.38136L20.664 5.46069L20.6642 5.46045L19.6223 4.38136ZM17.9996 5.94744L16.9579 7.02677C17.5391 7.58766 18.4601 7.58766 19.0412 7.02677L17.9996 5.94744ZM16.3769 4.38136L15.3352 5.46069L16.3769 4.38136ZM4.46668 15.8758L3.42503 16.9551H3.42503L4.46668 15.8758ZM17.9996 28.9362L16.9579 30.0156C17.5391 30.5765 18.4601 30.5765 19.0412 30.0156L17.9996 28.9362ZM31.5325 15.8758L30.4911 14.7962L30.4908 14.7964L31.5325 15.8758ZM32.5744 3.30227C31.6509 2.4106 30.5573 1.70598 29.3574 1.22614L28.2435 4.01168C29.0871 4.34905 29.8503 4.84219 30.4906 5.46045L32.5744 3.30227ZM29.3574 1.22614C28.1575 0.746335 26.8732 0.5 25.5774 0.5V3.5C26.4937 3.5 27.3998 3.67428 28.2435 4.01168L29.3574 1.22614ZM25.5774 0.5C24.2816 0.5 22.9973 0.746335 21.7974 1.22614L22.9113 4.01168C23.7551 3.67428 24.6612 3.5 25.5774 3.5V0.5ZM21.7974 1.22614C20.5975 1.70598 19.5039 2.41061 18.5804 3.30227L20.6642 5.46045C21.3045 4.84219 22.0677 4.34905 22.9113 4.01168L21.7974 1.22614ZM18.5807 3.30203L16.9579 4.8681L19.0412 7.02677L20.664 5.46069L18.5807 3.30203ZM19.0412 4.8681L17.4185 3.30203L15.3352 5.46069L16.9579 7.02677L19.0412 4.8681ZM17.4185 3.30203C15.5541 1.50266 13.0363 0.50079 10.4218 0.50079V3.50079C12.2744 3.50079 14.0409 4.21155 15.3352 5.46069L17.4185 3.30203ZM10.4218 0.50079C7.80721 0.50079 5.28948 1.50266 3.42503 3.30203L5.50833 5.46069C6.80266 4.21155 8.56915 3.50079 10.4218 3.50079V0.50079ZM3.42503 3.30203C1.55876 5.10314 0.5 7.55757 0.5 10.1286H3.5C3.5 8.38831 4.21582 6.70808 5.50833 5.46069L3.42503 3.30203ZM0.5 10.1286C0.5 12.6996 1.55876 15.154 3.42503 16.9551L5.50833 14.7964C4.21582 13.549 3.5 11.8688 3.5 10.1286H0.5ZM32.5739 16.9553C33.4979 16.064 34.2339 15.0028 34.737 13.8309L31.9804 12.6473C31.6368 13.4476 31.1316 14.1783 30.4911 14.7962L32.5739 16.9553ZM34.737 13.8309C35.2402 12.6588 35.5 11.4006 35.5 10.1286H32.5C32.5 10.9914 32.3239 11.8471 31.9804 12.6473L34.737 13.8309ZM35.5 10.1286C35.5 8.85654 35.2402 7.59833 34.737 6.42628L31.9804 7.60982C32.3239 8.41002 32.5 9.26573 32.5 10.1286H35.5ZM34.737 6.42628C34.2339 5.25436 33.4979 4.19313 32.5739 3.30178L30.4911 5.46094C31.1316 6.0788 31.6368 6.80949 31.9804 7.60982L34.737 6.42628ZM3.42503 16.9551L16.9579 30.0156L19.0412 27.8569L5.50833 14.7964L3.42503 16.9551ZM19.0412 30.0156L32.5742 16.9551L30.4908 14.7964L16.9579 27.8569L19.0412 30.0156Z" fill="white"/>
</svg>
