<?xml version="1.0" ?><svg data-name="Layer 1" id="Layer_1" viewBox="0 0 32 32" xmlns="http://www.w3.org/2000/svg"><title/><path d="M21,29a3,3,0,1,1,3-3A3,3,0,0,1,21,29Zm0-4a1,1,0,1,0,1,1A1,1,0,0,0,21,25Z"/><path d="M12,29a3,3,0,1,1,3-3A3,3,0,0,1,12,29Zm0-4a1,1,0,1,0,1,1A1,1,0,0,0,12,25Z"/><path d="M26,22H10.584a2.991,2.991,0,0,1-2.921-2.312L4.026,4.229a1,1,0,0,1,1.948-.458L9.61,19.229a1,1,0,0,0,.974.771H26a1,1,0,0,1,0,2Z"/><path d="M23.331,19H13.669a3,3,0,0,1-2.951-2.463l-1.7-9.358A1,1,0,0,1,10,6H24.6a3,3,0,0,1,2.951,3.537l-1.273,7A3,3,0,0,1,23.331,19ZM11.2,8l1.487,8.179a1,1,0,0,0,.984.821h9.662a1,1,0,0,0,.984-.821l1.273-7A1,1,0,0,0,24.6,8Z"/></svg>